<svg width="30" height="30" viewBox="0 0 30 30" fill="none" xmlns="http://www.w3.org/2000/svg">
<path d="M23.9062 4.6875H19.5609C19.6436 4.54508 19.6872 4.3834 19.6875 4.21875V3.28125H25.3125V29.5312H4.6875V3.28125H10.3125V4.21875C10.3128 4.3834 10.3564 4.54508 10.4391 4.6875H6.09375V28.125H23.9062V4.6875Z" fill="#C1CFE8"/>
<path d="M19.5609 4.6875C19.4787 4.82988 19.3605 4.94813 19.2182 5.03041C19.0759 5.11268 18.9144 5.15608 18.75 5.15625H11.25C11.0014 5.15625 10.7629 5.05748 10.5871 4.88166C10.4113 4.70585 10.3125 4.46739 10.3125 4.21875V2.8125C10.3132 2.56409 10.4123 2.32606 10.5879 2.15041C10.7636 1.97475 11.0016 1.87574 11.25 1.875H13.125C13.125 1.50204 13.2732 1.14435 13.5369 0.880631C13.8006 0.616908 14.1583 0.46875 14.5312 0.46875H15.4688C15.8417 0.46875 16.1994 0.616908 16.4631 0.880631C16.7268 1.14435 16.875 1.50204 16.875 1.875H18.75C18.9984 1.87574 19.2364 1.97475 19.4121 2.15041C19.5877 2.32606 19.6868 2.56409 19.6875 2.8125V4.21875C19.6872 4.3834 19.6436 4.54507 19.5609 4.6875Z" fill="#393D48"/>
<path d="M18.75 1.875H16.875C16.875 1.50204 16.7268 1.14435 16.4631 0.880631C16.1994 0.616908 15.8417 0.46875 15.4688 0.46875H14.5312C14.1583 0.46875 13.8006 0.616908 13.5369 0.880631C13.2732 1.14435 13.125 1.50204 13.125 1.875H11.25C11.0016 1.87574 10.7636 1.97475 10.5879 2.15041C10.4123 2.32606 10.3132 2.56409 10.3125 2.8125V3.75C10.3132 3.50159 10.4123 3.26356 10.5879 3.08791C10.7636 2.91225 11.0016 2.81324 11.25 2.8125H13.125C13.125 2.43954 13.2732 2.08185 13.5369 1.81813C13.8006 1.55441 14.1583 1.40625 14.5312 1.40625H15.4688C15.8417 1.40625 16.1994 1.55441 16.4631 1.81813C16.7268 2.08185 16.875 2.43954 16.875 2.8125H18.75C18.9984 2.81324 19.2364 2.91225 19.4121 3.08791C19.5877 3.26356 19.6868 3.50159 19.6875 3.75V2.8125C19.6868 2.56409 19.5877 2.32606 19.4121 2.15041C19.2364 1.97475 18.9984 1.87574 18.75 1.875Z" fill="#5C6979"/>
<path d="M15 22.0312C17.0711 22.0312 18.75 20.3523 18.75 18.2812C18.75 16.2102 17.0711 14.5312 15 14.5312C12.9289 14.5312 11.25 16.2102 11.25 18.2812C11.25 20.3523 12.9289 22.0312 15 22.0312Z" fill="#006FDB"/>
<path d="M17.3438 9.375V11.25H15.9375V12.6562H14.0625V11.25H12.6562V9.375H14.0625V7.96875H15.9375V9.375H17.3438Z" fill="#FBFBFB"/>
<path d="M23.9062 4.6875V28.125H6.09375V4.6875H10.4391C10.5213 4.82988 10.6395 4.94813 10.7818 5.03041C10.9241 5.11268 11.0856 5.15608 11.25 5.15625H18.75C18.9144 5.15608 19.0759 5.11268 19.2182 5.03041C19.3605 4.94813 19.4787 4.82988 19.5609 4.6875H23.9062ZM18.75 18.2812C18.75 17.5396 18.5301 16.8145 18.118 16.1979C17.706 15.5812 17.1203 15.1005 16.4351 14.8167C15.7498 14.5329 14.9958 14.4586 14.2684 14.6033C13.541 14.748 12.8728 15.1052 12.3483 15.6296C11.8239 16.154 11.4667 16.8222 11.3221 17.5497C11.1774 18.2771 11.2516 19.0311 11.5355 19.7163C11.8193 20.4015 12.2999 20.9872 12.9166 21.3993C13.5333 21.8113 14.2583 22.0312 15 22.0312C15.9946 22.0312 16.9484 21.6362 17.6516 20.9329C18.3549 20.2296 18.75 19.2758 18.75 18.2812ZM17.3438 11.25V9.375H15.9375V7.96875H14.0625V9.375H12.6562V11.25H14.0625V12.6562H15.9375V11.25H17.3438Z" fill="#006FDB"/>
<path d="M8.4375 4.21875H5.625V28.5938H24.375V4.21875H21.5625C21.3139 4.21875 21.0754 4.11998 20.8996 3.94416C20.7238 3.76835 20.625 3.52989 20.625 3.28125H19.6875V4.21875C19.6872 4.3834 19.6436 4.54508 19.5609 4.6875H23.9062V28.125H6.09375V4.6875H10.4391C10.3564 4.54508 10.3128 4.3834 10.3125 4.21875V3.28125H9.375C9.375 3.52989 9.27623 3.76835 9.10041 3.94416C8.9246 4.11998 8.68614 4.21875 8.4375 4.21875Z" fill="#8394B2"/>
<path d="M15 14.0625C14.1656 14.0625 13.35 14.3099 12.6562 14.7735C11.9624 15.237 11.4217 15.8959 11.1024 16.6668C10.7831 17.4377 10.6995 18.2859 10.8623 19.1043C11.0251 19.9226 11.4269 20.6744 12.0169 21.2644C12.6069 21.8544 13.3586 22.2562 14.177 22.4189C14.9953 22.5817 15.8436 22.4982 16.6144 22.1789C17.3853 21.8596 18.0442 21.3188 18.5078 20.6251C18.9713 19.9313 19.2187 19.1156 19.2187 18.2812C19.2187 17.1624 18.7743 16.0893 17.9831 15.2981C17.1919 14.507 16.1189 14.0625 15 14.0625ZM15 22.0312C14.2583 22.0312 13.5333 21.8113 12.9166 21.3993C12.2999 20.9872 11.8193 20.4015 11.5355 19.7163C11.2516 19.0311 11.1774 18.2771 11.3221 17.5497C11.4668 16.8222 11.8239 16.154 12.3484 15.6296C12.8728 15.1052 13.541 14.748 14.2684 14.6033C14.9958 14.4586 15.7498 14.5329 16.4351 14.8167C17.1203 15.1005 17.706 15.5812 18.118 16.1979C18.5301 16.8145 18.75 17.5396 18.75 18.2812C18.75 19.2758 18.3549 20.2296 17.6516 20.9329C16.9484 21.6362 15.9946 22.0312 15 22.0312Z" fill="#FBFBFB"/>
<path d="M13.51 20.6251C13.4903 20.6253 13.4705 20.624 13.451 20.6214C13.381 20.6125 13.3139 20.5879 13.2548 20.5496C13.1956 20.5112 13.1458 20.4599 13.1092 20.3996L12.4999 19.3942C12.4679 19.3416 12.4466 19.2832 12.4372 19.2223C12.4277 19.1615 12.4304 19.0994 12.445 19.0396C12.4596 18.9798 12.4858 18.9235 12.5221 18.8738C12.5585 18.8241 12.6043 18.7821 12.6569 18.7501C12.7095 18.7181 12.7679 18.6969 12.8288 18.6875C12.8896 18.6781 12.9517 18.6808 13.0116 18.6954C13.0714 18.7101 13.1277 18.7363 13.1774 18.7727C13.227 18.8091 13.269 18.855 13.301 18.9076L13.6042 19.4082L16.6816 16.3989C16.7705 16.312 16.8902 16.2639 17.0145 16.2653C17.1388 16.2668 17.2575 16.3175 17.3444 16.4064C17.4313 16.4952 17.4793 16.615 17.4779 16.7393C17.4765 16.8636 17.4258 16.9823 17.3369 17.0692L13.8377 20.491C13.7502 20.5768 13.6326 20.625 13.51 20.6251Z" fill="#FBFBFB"/>
<path d="M18.75 4.21875H11.25C11.0014 4.21875 10.7629 4.11998 10.5871 3.94416C10.4113 3.76835 10.3125 3.52989 10.3125 3.28125V4.21875C10.3125 4.46739 10.4113 4.70585 10.5871 4.88166C10.7629 5.05748 11.0014 5.15625 11.25 5.15625H18.75C18.9986 5.15625 19.2371 5.05748 19.4129 4.88166C19.5887 4.70585 19.6875 4.46739 19.6875 4.21875V3.28125C19.6875 3.52989 19.5887 3.76835 19.4129 3.94416C19.2371 4.11998 18.9986 4.21875 18.75 4.21875Z" fill="#222430"/>
<path d="M10.4391 5.625C10.5213 5.76738 10.6395 5.88563 10.7818 5.96791C10.9241 6.05018 11.0856 6.09358 11.25 6.09375H18.75C18.9986 6.09375 19.2371 5.99498 19.4129 5.81916C19.5887 5.64335 19.6875 5.40489 19.6875 5.15625V4.6875H19.5609C19.4787 4.82988 19.3605 4.94813 19.2182 5.03041C19.0759 5.11268 18.9144 5.15608 18.75 5.15625H11.25C11.0856 5.15608 10.9241 5.11268 10.7818 5.03041C10.6395 4.94813 10.5213 4.82988 10.4391 4.6875H10.3125V5.15625C10.3128 5.3209 10.3564 5.48258 10.4391 5.625Z" fill="#005EBA"/>
<path d="M7.96875 15.9375V4.6875H6.09375V28.125H23.9062V26.25H18.2812C15.5462 26.25 12.9232 25.1635 10.9892 23.2295C9.05524 21.2956 7.96875 18.6725 7.96875 15.9375Z" fill="#005EBA"/>
</svg>
